<svg width="567" height="150" viewBox="0 0 567 150" fill="none" xmlns="http://www.w3.org/2000/svg">
<g clip-path="url(#clip0_36_5304)">
<path d="M32.6669 0.0695052C33.0472 0.0695052 33.4248 0.0667269 33.8051 0.0639486C34.835 0.058392 35.8622 0.0611703 36.8921 0.0639486C38.0081 0.0639486 39.1214 0.0611703 40.2374 0.058392C42.4166 0.0528354 44.5987 0.0500572 46.778 0.0528354C48.5519 0.0528354 50.3258 0.0528354 52.0998 0.0528354C52.6134 0.0528354 53.127 0.0528354 53.6378 0.0528354C53.8932 0.0528354 54.1486 0.0528354 54.4123 0.0528354C59.2345 0.0472789 64.0538 0.0472789 68.876 0.0500572C73.2734 0.0500572 77.6707 0.0445006 82.0681 0.0361657C86.596 0.0278308 91.1239 0.0222742 95.6517 0.0250525C98.1891 0.0250525 100.727 0.0250525 103.261 0.0167176C105.421 0.0111611 107.584 0.0111611 109.743 0.0167176C110.843 0.0167176 111.942 0.0194959 113.041 0.0139394C119.585 -0.0194002 125.82 0.4029 131.705 3.5257C131.88 3.61738 132.055 3.70907 132.233 3.80353C135.045 5.31214 137.41 7.20694 139.756 9.36011C139.943 9.52496 140.132 9.69073 140.322 9.85743C146.136 15.2334 149.398 23.5961 149.797 31.3864C149.87 33.7674 149.867 36.1456 149.859 38.5266C149.859 39.6046 149.859 40.6798 149.861 41.755C149.864 43.8582 149.864 45.9586 149.861 48.0589C149.861 49.7676 149.861 51.479 149.861 53.1877C149.861 53.4322 149.861 53.6767 149.861 53.9295C149.861 54.4268 149.861 54.9241 149.861 55.4214C149.861 60.0667 149.861 64.7148 149.856 69.3601C149.853 73.3359 149.853 77.3116 149.856 81.2873C149.861 85.9187 149.861 90.5474 149.859 95.1788C149.859 95.6733 149.859 96.1679 149.859 96.6652C149.859 96.9097 149.859 97.1514 149.859 97.4014C149.859 99.1073 149.859 100.813 149.859 102.516C149.859 104.597 149.859 106.681 149.856 108.762C149.856 109.823 149.853 110.882 149.856 111.94C149.883 123.023 147.788 132.177 139.959 140.407C132.891 147.23 124.154 149.989 114.449 149.978C114.097 149.978 113.741 149.978 113.38 149.978C112.411 149.978 111.442 149.978 110.476 149.978C109.427 149.978 108.38 149.978 107.331 149.981C105.282 149.981 103.231 149.983 101.182 149.983C99.5134 149.983 97.8477 149.983 96.1792 149.983C91.4431 149.983 86.7071 149.986 81.9737 149.986H80.4274C76.2938 149.986 72.1601 149.986 68.0265 149.992C63.7734 149.997 59.5204 149.997 55.2674 149.997C52.8827 149.997 50.498 149.997 48.1133 150C46.0839 150 44.0546 150.003 42.0224 150C40.9897 150 39.9542 150 38.9215 150C27.5394 150.025 17.7035 148.055 9.33903 139.84C1.74631 132.158 -0.0193107 122.981 0.00567452 112.554C0.00567452 111.44 0.00567452 110.329 0.00289838 109.215C0.000122252 107.039 0.000122252 104.867 0.00289838 102.691C0.00289838 100.922 0.00289838 99.1545 0.00289838 97.3848C0.00289838 97.1319 0.00289838 96.8791 0.00289838 96.6179C0.00289838 96.104 0.00289838 95.59 0.00289838 95.0788C0.00289838 90.2751 0.00289838 85.4742 0.00845065 80.6705C0.0112268 76.5587 0.0112268 72.444 0.00845065 68.3321C0.000122252 63.5479 0.000122252 58.7637 0.000122252 53.9767C0.000122252 53.4655 0.000122252 52.9543 0.000122252 52.4431C0.000122252 52.193 0.000122252 51.9402 0.000122252 51.6818C0.000122252 49.9176 0.000122252 48.1534 0.000122252 46.3892C0.000122252 44.236 0.000122252 42.0828 0.000122252 39.9297C0.000122252 38.8322 0.00289838 37.7376 0.000122252 36.6402C-0.0193107 25.9354 2.27377 17.231 9.91924 9.41568C15.9962 3.39234 24.1219 0.0306091 32.6669 0.0695052Z" fill="#141A42"/>
<path d="M82.5149 34.3369C83.2062 34.8731 83.8613 35.4315 84.5109 36.0177C84.6997 36.1817 84.8913 36.3456 85.0856 36.515C87.6785 38.9044 89.4802 42.1522 90.6184 45.4639C90.6851 45.6584 90.7545 45.8529 90.8239 46.0501C91.4652 48.3089 91.1737 50.6204 91.1737 52.9653H78.9587C78.7755 51.6817 78.5904 50.3852 78.4035 49.0757C78.0537 48.2228 77.7816 47.5949 77.293 46.8531C77.1375 46.6114 76.9848 46.3724 76.8238 46.1252C75.0249 44.2776 72.9123 43.183 70.3166 43.1024C67.9291 43.1385 66.0941 44.0859 64.2618 45.5695C63.0764 47.0809 61.9965 48.5395 61.9549 50.5176C61.9475 50.7158 61.9401 50.9168 61.9327 51.1205C62.1992 53.2793 63.1597 54.5823 64.7143 56.0409C64.8892 56.2104 65.0641 56.3798 65.2418 56.5521C66.294 57.5662 67.3711 58.5497 68.4843 59.4943C69.1617 60.0861 69.7836 60.7306 70.4137 61.3724C70.919 61.8697 71.4437 62.3337 71.9823 62.7949C72.8179 63.5145 73.6035 64.2674 74.3753 65.0509C75.3136 66.0038 76.2853 66.8901 77.3013 67.7597C78.0731 68.446 78.7893 69.185 79.5111 69.9212C80.0497 70.4519 80.6049 70.9492 81.1768 71.441C82.1512 72.28 83.0507 73.1718 83.9529 74.0887C84.4915 74.6193 85.0467 75.1166 85.6186 75.6084C86.3932 76.2752 87.1233 76.9642 87.8395 77.6921C88.5502 78.4145 89.2748 79.0979 90.0438 79.7592C91.1015 80.6677 92.0731 81.6484 93.0531 82.6403C93.7888 83.3654 94.5605 84.035 95.3462 84.7101C96.118 85.3963 96.8342 86.1353 97.5588 86.8716C98.0918 87.3967 98.6387 87.8857 99.205 88.3719C100.035 89.0859 100.812 89.8333 101.581 90.6112C102.345 91.3863 103.117 92.1254 103.941 92.8338C104.99 93.734 105.954 94.7064 106.925 95.6899C107.703 96.4567 108.516 97.1763 109.346 97.8875C109.588 98.0931 109.824 98.3043 110.049 98.5293C110.074 99.0822 110.082 99.6378 110.079 100.194C110.079 100.549 110.079 100.905 110.079 101.271L110.074 102.447C110.074 102.844 110.074 103.244 110.074 103.641C110.074 104.692 110.071 105.742 110.068 106.792C110.065 107.862 110.062 108.934 110.062 110.004C110.06 112.107 110.054 114.207 110.049 116.31C109.699 116.052 109.349 115.794 108.999 115.535C108.805 115.391 108.611 115.246 108.411 115.099C107.492 114.379 106.695 113.554 105.884 112.715C104.699 111.507 103.508 110.34 102.217 109.245C101.459 108.578 100.762 107.853 100.055 107.134C99.3355 106.425 98.5776 105.775 97.8142 105.117C97.1201 104.503 96.4788 103.844 95.8292 103.183C95.3101 102.675 94.7743 102.199 94.2246 101.724C93.3279 100.952 92.4951 100.138 91.665 99.2933C91.1459 98.7849 90.6101 98.3098 90.0604 97.8347C89.3359 97.2096 88.6474 96.5706 87.9783 95.8899C87.3148 95.2148 86.6319 94.5814 85.9129 93.9618C85.1328 93.2895 84.3971 92.5949 83.6753 91.8614C82.9591 91.1335 82.229 90.4445 81.4544 89.7777C80.48 88.9386 79.5805 88.0468 78.6783 87.13C78.1397 86.5993 77.5845 86.102 77.0126 85.6103C76.0382 84.7712 75.1387 83.8794 74.2365 82.9625C73.6979 82.4319 73.1427 81.9346 72.5708 81.4428C71.5964 80.6038 70.6969 79.7119 69.7947 78.7951C69.2561 78.2644 68.7009 77.7671 68.129 77.2754C67.1546 76.4363 66.2551 75.5445 65.3528 74.6277C64.8143 74.097 64.2591 73.5997 63.6872 73.1079C62.9126 72.4412 62.1825 71.7521 61.4663 71.0242C60.5862 70.1324 59.6757 69.2989 58.729 68.4821C57.8157 67.6903 56.9134 66.8846 56.0195 66.0705C55.6281 65.7121 55.2311 65.3593 54.8285 65.0148C51.2196 61.7475 49.5456 56.3104 49.1902 51.6095C49.007 45.9057 51.2307 41.2854 54.7952 37.0346C61.9188 29.436 74.031 28.4552 82.5121 34.3396L82.5149 34.3369Z" fill="#FDFDFD"/>
<path d="M313.472 64.3424C317.95 68.0931 319.457 73.7025 319.993 79.2896C320.646 86.9522 319.968 95.2454 315.135 101.549C311.718 105.492 307.328 107.053 302.276 107.509C298.611 107.634 294.925 106.898 292.162 104.364C290.847 103.028 290.014 102.01 289.664 101.308C289.572 109.284 289.481 117.261 289.386 125.479H277.727V61.8558H288.276C288.642 63.4145 289.009 64.9731 289.386 66.5789C289.753 66.1205 290.119 65.6621 290.497 65.1898C296.607 58.9081 306.643 59.5193 313.472 64.3424ZM291.307 74.9999C288.648 78.7395 289.003 84.9435 289.717 89.272C290.302 91.6753 291.335 93.6812 293.398 95.1037C296.393 96.6762 299.827 96.6706 303.025 95.7816C304.691 95.1426 306.088 94.1063 306.981 92.5421C308.933 87.7968 309 81.4511 307.431 76.5836C306.701 74.8305 305.496 73.583 303.822 72.694C299.469 71.0825 294.525 71.4354 291.307 74.9999Z" fill="#141A42"/>
<path d="M214.986 52.4096C215.461 53.646 214.967 54.6823 214.562 55.8769C214.488 56.1029 214.413 56.3316 214.337 56.5632C214.098 57.2855 213.857 58.0079 213.615 58.7275C213.454 59.2164 213.29 59.7082 213.129 60.1972C212.732 61.3974 212.332 62.5976 211.933 63.7978C210.992 63.4339 210.231 63.056 209.417 62.4615C205.303 59.6721 200.117 58.6691 195.231 59.5026C193.582 59.9555 192.18 60.5945 191.145 62.0086C190.606 63.6534 190.615 65.262 191.092 66.9234C193.427 70.0379 197.339 71.0158 200.895 72.0966C207.134 74.0507 211.275 76.1918 213.318 78.52C213.471 78.6728 213.623 78.8256 213.782 78.9812C216.419 81.7234 217.171 85.3046 217.291 89.0081C217.171 94.0757 215.63 98.2792 211.93 101.858C211.766 102.016 211.605 102.174 211.436 102.338C210.969 102.763 210.492 103.147 209.987 103.525C209.805 103.66 209.621 103.797 209.434 103.936C203.524 107.9 195.273 108.103 188.499 106.847C184.588 106.056 180.84 104.636 177.506 102.411C177.675 101.008 177.972 99.6934 178.389 98.3403C178.447 98.1459 178.508 97.9514 178.569 97.7514C178.694 97.3457 178.819 96.9401 178.947 96.5345C179.141 95.9121 179.327 95.287 179.516 94.6647C179.638 94.2702 179.76 93.8729 179.885 93.4783C179.941 93.2913 179.997 93.1023 180.054 92.9116C180.165 92.5652 180.336 92.1198 180.565 91.5752C180.84 91.4835 181.115 91.3918 181.398 91.2974C182.014 91.6113 182.583 91.9392 183.169 92.3031C187.011 94.5924 191.026 95.801 195.506 95.8288C195.721 95.8288 195.938 95.8306 196.159 95.8343C198.852 95.801 201.478 95.2592 203.51 93.3755C204.154 92.6421 204.631 91.9975 204.72 91.0195C204.748 90.7223 204.779 90.425 204.806 90.1166C204.679 88.5941 204.262 87.4883 203.155 86.4104C200.337 84.3266 196.575 83.382 193.283 82.3263C187.525 80.4676 182.664 78.1755 179.666 72.5967C178.533 70.2129 178.244 67.8541 178.258 65.2342C178.258 64.9647 178.258 64.6952 178.261 64.4174C178.333 60.0055 179.774 56.4715 182.786 53.2348C190.842 45.4806 206.244 45.8112 214.989 52.4013L214.986 52.4096Z" fill="#141A42"/>
<path d="M519.807 61.8559H532.299C535.334 69.1906 538.354 76.5309 541.347 83.885C541.458 84.1628 541.572 84.4407 541.688 84.7268C541.899 85.2436 542.11 85.7604 542.321 86.2799C542.854 87.5912 543.398 88.8943 543.959 90.1945C544.725 88.5192 545.414 86.8328 546.044 85.1047C546.135 84.8574 546.224 84.6129 546.319 84.3601C546.513 83.8322 546.707 83.3016 546.902 82.7737C547.207 81.9374 547.515 81.0984 547.823 80.2621C548.479 78.4812 549.134 76.6976 549.789 74.9167C550.563 72.8107 551.335 70.7048 552.112 68.5988C552.423 67.7515 552.734 66.9041 553.045 66.0567C553.234 65.5399 553.426 65.026 553.614 64.5092C553.7 64.273 553.789 64.0341 553.878 63.7896C554.278 62.7079 554.58 62.0643 554.786 61.8587C555.169 61.8337 555.555 61.8254 555.938 61.8281H556.679C556.946 61.8281 557.212 61.8309 557.484 61.8309C557.756 61.8309 558.03 61.8309 558.306 61.8309C559.175 61.8309 560.041 61.8365 560.91 61.8393C561.499 61.8393 562.084 61.8393 562.673 61.842C564.116 61.8448 565.557 61.8504 567.001 61.8559C566.36 64.1536 565.543 66.3762 564.699 68.6072C564.552 68.9989 564.405 69.3907 564.258 69.7852C563.864 70.8409 563.464 71.8967 563.067 72.9524C562.651 74.0637 562.231 75.1723 561.815 76.2836C561.207 77.9006 560.599 79.5175 559.991 81.1345C559.042 83.6516 558.098 86.1715 557.154 88.6915C556.585 90.2056 556.019 91.717 555.449 93.2312C555.066 94.2536 554.683 95.2732 554.3 96.2956C552.929 99.9547 551.557 103.614 550.086 107.234C549.992 107.467 549.897 107.703 549.8 107.945C548.293 111.607 546.48 115.188 543.959 118.258C543.773 118.489 543.584 118.722 543.393 118.961C539.648 123.378 534.742 125.932 528.968 126.593C528.418 126.61 527.869 126.618 527.319 126.61C527.052 126.61 526.789 126.604 526.514 126.601C526.316 126.598 526.116 126.594 525.914 126.59C525.27 124.215 524.645 121.836 524.04 119.453C523.979 119.214 523.915 118.975 523.854 118.728C523.797 118.502 523.739 118.273 523.679 118.041C523.629 117.841 523.578 117.638 523.527 117.433C523.453 117.053 523.416 116.493 523.416 115.752C523.674 115.708 523.932 115.663 524.198 115.619C528.937 114.752 533.765 113.146 536.672 109.067C536.98 108.615 537.282 108.159 537.574 107.695C537.69 107.512 537.808 107.326 537.926 107.139C538.437 105.742 537.446 104.136 536.894 102.85C536.797 102.616 536.697 102.38 536.594 102.138C536.264 101.355 535.93 100.574 535.597 99.7907C535.359 99.2351 535.123 98.6766 534.887 98.121C534.251 96.6207 533.612 95.1204 532.974 93.6229C532.577 92.6922 532.183 91.7642 531.786 90.8335C530.717 88.3219 529.648 85.8076 528.576 83.296C526.561 78.5646 524.559 73.8276 522.566 69.0878C522.461 68.8433 522.358 68.5961 522.252 68.3432C522.064 67.8932 521.872 67.4431 521.683 66.993C521.6 66.7902 521.514 66.5874 521.425 66.379C521.345 66.1845 521.261 65.99 521.178 65.7872C520.806 64.9259 520.412 64.0758 520.012 63.2256C519.875 62.8645 519.807 62.406 519.807 61.8504V61.8559Z" fill="#141A42"/>
<path d="M359.987 63.7509C360.335 64.0398 360.676 64.3343 361.012 64.6371C361.201 64.8038 361.387 64.9678 361.581 65.14C365.171 68.5017 366.672 73.3971 366.875 78.2174C366.903 79.1482 366.919 80.0817 366.928 81.0124C366.933 81.3097 366.939 81.6069 366.944 81.9153C366.942 84.3102 366.534 86.0828 366.009 88.5332H339.636C340.374 91.2421 340.849 92.7312 342.898 94.4538C344.738 95.4095 346.726 95.9124 348.797 96.0346C349.044 96.0485 349.288 96.0652 349.541 96.0791C353.502 96.1958 357.453 95.4345 361.245 94.3315C362.089 94.1009 362.922 93.9509 363.788 93.812C364.027 95.1706 364.263 96.5319 364.499 97.8905C364.579 98.3517 364.66 98.8157 364.743 99.2769C364.86 99.9409 364.973 100.608 365.09 101.274C365.126 101.48 365.162 101.686 365.201 101.897C365.376 102.919 365.495 103.889 365.454 104.925C356.889 108.081 346.52 108.812 337.97 105.203C333.864 103.289 330.794 100.066 329.236 95.7957C327.968 92.0505 327.59 88.3804 327.612 84.4353V83.8435C327.626 80.8874 327.759 78.0674 328.531 75.1974C328.578 75.0196 328.626 74.8418 328.676 74.6584C330.019 69.7909 332.557 65.8457 336.954 63.2619C343.522 59.8196 353.68 59.2445 359.987 63.7536V63.7509ZM340.746 73.8027C339.722 75.5225 339.833 76.6338 339.636 78.8037H355.737C355.523 76.394 354.7 74.2954 353.269 72.508C349.48 69.9492 343.78 70.2993 340.746 73.8027Z" fill="#141A42"/>
<path d="M228.128 61.8172C228.374 61.8172 228.623 61.8172 228.875 61.8172C229.127 61.8172 229.377 61.8172 229.638 61.8172C230.171 61.8172 230.704 61.8172 231.237 61.8172C232.056 61.8172 232.875 61.8172 233.694 61.8172C234.21 61.8172 234.727 61.8172 235.243 61.8172C235.49 61.8172 235.737 61.8172 235.99 61.8172C237.141 61.8209 237.82 61.9265 238.027 62.1339C238.052 62.9257 238.058 63.7092 238.055 64.501C238.055 64.7483 238.055 64.9983 238.055 65.254C238.055 65.7957 238.052 66.3375 238.05 66.8793C238.047 67.7405 238.044 68.6018 238.044 69.4631C238.041 71.6051 238.033 73.7472 238.027 75.892C238.022 77.6951 238.016 79.501 238.014 81.3042C238.014 82.146 238.008 82.9906 238.005 83.8324C237.741 87.5497 238.212 91.0587 239.418 94.3593C241.75 96.0958 244.204 96.2402 247.025 95.9596C248.985 95.6179 250.639 94.7344 251.864 93.1452C253.602 90.3697 253.89 87.5081 253.912 84.3103C253.915 84.0658 253.918 83.8213 253.921 83.5712C253.929 82.7711 253.937 81.9709 253.943 81.1736C253.949 80.6151 253.954 80.0595 253.96 79.501C253.974 78.0397 253.987 76.5783 254.001 75.1169C254.018 73.361 254.037 71.6023 254.054 69.8465C254.082 67.1821 254.107 64.5205 254.132 61.8561H265.792V106.309H255.242C254.876 104.934 254.506 103.545 254.132 102.141C253.874 102.377 253.615 102.611 253.352 102.853C249.135 106.45 244.632 107.717 239.141 107.42C235.315 107.045 232.339 105.759 229.669 102.958C225.443 97.7127 226.051 90.892 226.057 84.5547C226.057 83.9074 226.057 83.2601 226.057 82.6127C226.057 81.2625 226.057 79.915 226.057 78.5648C226.057 76.8311 226.057 75.1002 226.057 73.3666C226.057 72.033 226.057 70.6994 226.057 69.3658C226.057 68.7268 226.057 68.0878 226.057 67.446C226.057 66.557 226.057 65.6679 226.057 64.7816C226.057 64.5149 226.057 64.251 226.057 63.9759C226.057 63.737 226.057 63.4953 226.057 63.248C226.057 63.0397 226.057 62.8285 226.057 62.6118C226.143 61.4477 227.201 61.82 228.128 61.8172Z" fill="#141A42"/>
<path d="M409.039 61.8559H421.254C422.015 63.3812 422.684 64.8315 423.258 66.4207C423.342 66.6457 423.425 66.8708 423.511 67.1013C423.689 67.5876 423.866 68.0738 424.047 68.56C424.53 69.8824 425.018 71.2049 425.507 72.5273C425.611 72.807 425.715 73.0886 425.821 73.372C426.62 75.5362 427.439 77.6978 428.261 79.8537C428.383 80.1704 428.503 80.4844 428.627 80.8122C429.102 82.0597 429.58 83.3099 430.06 84.5574C430.393 85.4242 430.723 86.2938 431.057 87.1634C431.156 87.4218 431.256 87.6802 431.359 87.9469C431.45 88.1877 431.542 88.4303 431.637 88.6748C431.715 88.8832 431.795 89.0888 431.878 89.3055C432.098 89.9667 432.236 90.6224 432.359 91.3086H432.914C432.961 91.1475 433.005 90.9836 433.053 90.8169C433.605 88.9221 434.26 87.0828 434.957 85.238C435.074 84.9269 435.19 84.6129 435.312 84.2906C435.69 83.2793 436.073 82.268 436.453 81.2567C436.584 80.9095 436.714 80.5622 436.845 80.2149C438.552 75.6724 440.271 71.1327 442.006 66.6013C442.094 66.3697 442.183 66.1364 442.272 65.9011C442.516 65.2621 442.761 64.6259 443.008 63.9869C443.08 63.8007 443.149 63.6146 443.224 63.4229C443.546 62.5875 443.811 62.0662 444.018 61.8587C444.401 61.8337 444.787 61.8254 445.17 61.8281H445.912C446.178 61.8281 446.445 61.8309 446.717 61.8309C446.989 61.8309 447.263 61.8309 447.538 61.8309C448.407 61.8309 449.274 61.8365 450.142 61.8393C450.731 61.8393 451.317 61.8393 451.905 61.842C453.349 61.8448 454.79 61.8504 456.233 61.8559C455.681 63.823 455.009 65.7122 454.248 67.6098C454.137 67.8932 454.024 68.1765 453.91 68.4655C453.54 69.3934 453.168 70.3214 452.796 71.2493C452.535 71.905 452.275 72.5607 452.014 73.2192C451.542 74.411 451.067 75.6029 450.589 76.7976C449.373 79.8565 448.16 82.9154 446.95 85.9771C446.589 86.8939 446.225 87.808 445.862 88.7248C444.685 91.7003 443.507 94.6787 442.336 97.657C442.006 98.4933 441.678 99.3295 441.348 100.166C441.04 100.947 440.734 101.73 440.426 102.511C440.243 102.977 440.06 103.444 439.876 103.911C439.793 104.125 439.71 104.336 439.624 104.556C439.242 105.519 438.949 106.104 438.744 106.311C438.361 106.336 437.975 106.345 437.592 106.342C437.347 106.342 437.103 106.342 436.85 106.342C436.584 106.342 436.317 106.339 436.045 106.336C435.773 106.336 435.504 106.336 435.224 106.336C434.355 106.336 433.488 106.331 432.62 106.328C432.031 106.328 431.445 106.328 430.857 106.325C429.413 106.323 427.972 106.317 426.529 106.311C425.574 104.264 424.699 102.197 423.883 100.091C423.766 99.7907 423.65 99.4935 423.53 99.1823C423.278 98.5377 423.025 97.8932 422.775 97.2486C422.098 95.5066 421.415 93.7674 420.735 92.0282C420.665 91.8485 420.593 91.6679 420.521 91.4864C418.98 87.5524 417.412 83.6294 415.841 79.7092C414.167 75.5279 412.493 71.3466 410.855 67.1486C410.688 66.7179 410.519 66.2845 410.349 65.8539C410.125 65.276 409.9 64.6981 409.675 64.1175C409.55 63.798 409.428 63.4785 409.3 63.1506C409.126 62.6579 409.039 62.2264 409.039 61.8559Z" fill="#141A42"/>
<path d="M45.9194 72.1357C46.3358 72.3608 46.7522 72.5858 47.1686 72.8136C47.449 72.9664 47.7266 73.1165 48.0153 73.2721C48.6899 73.6444 49.3562 74.0222 50.0197 74.4112C52.4682 75.8364 54.9196 76.995 57.5791 77.9702C57.1738 78.9231 56.5853 79.6788 55.9606 80.4928C54.0479 82.985 52.3877 85.5688 52.3045 88.8055C52.2934 89.0833 52.2822 89.3612 52.2711 89.6473C52.1684 94.5482 53.7425 98.6768 57.0572 102.316C60.3608 105.478 64.3557 106.728 68.8363 106.637C73.1504 106.417 76.5068 104.667 79.5078 101.586C79.6836 101.421 79.8613 101.255 80.0408 101.088C81.7426 99.3769 82.5143 97.1237 83.3944 94.9177C84.3632 95.3289 84.9601 95.879 85.6847 96.6375C86.4426 97.4126 87.1977 98.16 88.0277 98.8601C89.8239 100.397 91.4507 102.127 93.1108 103.808C91.5756 109.093 86.0234 113.438 81.4511 116.033C81.2595 116.144 81.0707 116.255 80.8736 116.369C74.7689 119.689 67.1151 120.245 60.4441 118.553C56.5159 117.352 52.8708 115.438 49.8032 112.699C49.5811 112.515 49.3562 112.329 49.1258 112.14C44.8006 108.476 41.9856 103.647 40.3643 98.2517C40.2755 97.9627 40.1866 97.6738 40.095 97.3793C37.9463 89.1417 40.4892 81.2291 44.4813 74.0639C44.9005 73.3693 45.3863 72.7497 45.9166 72.1357H45.9194Z" fill="#FDFDFD"/>
<path d="M486.492 50.4648H498.152V61.8558C499.232 61.8531 500.309 61.8503 501.422 61.8447C502.46 61.8447 503.501 61.842 504.542 61.8392C505.267 61.8392 505.991 61.8364 506.716 61.8336C507.757 61.8308 508.795 61.8281 509.836 61.8281C510.164 61.8281 510.489 61.8281 510.825 61.8253C511.124 61.8253 511.427 61.8253 511.735 61.8253C512.002 61.8253 512.265 61.8253 512.54 61.8253C512.942 61.8475 513.235 61.9512 513.42 62.1364C513.448 62.9144 513.459 63.684 513.456 64.4647C513.456 64.698 513.456 64.9314 513.459 65.1703C513.459 65.6649 513.456 66.1594 513.456 66.654C513.456 67.4124 513.456 68.1709 513.459 68.9322C513.459 69.41 513.456 69.8907 513.456 70.3685C513.456 70.5963 513.459 70.827 513.459 71.0603C513.454 72.129 513.348 72.7662 513.143 72.9718C512.674 72.9968 512.204 73.0051 511.735 73.0024C511.435 73.0024 511.136 73.0024 510.825 73.0024C510.499 73.0024 510.169 73.0005 509.836 72.9968C509.503 72.9968 509.173 72.9968 508.829 72.9968C507.763 72.9968 506.697 72.9912 505.63 72.9885C504.909 72.9885 504.187 72.9885 503.468 72.9857C501.694 72.9829 499.923 72.9773 498.152 72.9718C498.174 75.3194 498.202 77.6671 498.232 80.0148C498.246 81.1039 498.257 82.1957 498.268 83.2848C498.279 84.3378 498.293 85.3935 498.307 86.4465C498.313 86.8466 498.315 87.2467 498.318 87.6467C498.253 90.112 498.689 92.4374 499.626 94.623C501.144 95.7899 502.493 95.8594 504.345 95.8566C504.589 95.8566 504.834 95.8566 505.086 95.8566C507.438 95.8177 509.506 95.3065 511.755 94.6397C512.215 94.5425 512.679 94.4508 513.143 94.3619C513.381 95.7205 513.617 97.0818 513.853 98.4404C513.934 98.9016 514.014 99.3656 514.098 99.8268C514.214 100.491 514.328 101.158 514.445 101.824C514.481 102.03 514.517 102.236 514.556 102.447C514.731 103.469 514.85 104.439 514.808 105.475C511.41 106.903 507.974 107.298 504.312 107.264C504.117 107.264 503.921 107.264 503.723 107.264C498.771 107.234 494.345 106.581 490.57 103.083C486.817 99.1044 486.447 94.0146 486.461 88.8219V87.5634C486.461 86.4298 486.461 85.2991 486.464 84.1655C486.464 82.9792 486.467 81.7957 486.467 80.6093C486.467 78.3672 486.47 76.1251 486.472 73.8831C486.472 71.3298 486.472 68.7766 486.478 66.2205C486.481 60.9696 486.486 55.7186 486.492 50.4676V50.4648Z" fill="#141A42"/>
<path d="M404.874 61.8559C404.48 65.6816 403.866 69.4601 403.208 73.2469C402.917 73.1664 402.625 73.0858 402.325 73.0024C399.063 72.1273 396.11 71.4883 392.986 73.2553C391.204 74.5833 390.552 76.7059 390.16 78.8035C389.919 80.4983 389.838 82.1736 389.824 83.8822C389.822 84.1267 389.819 84.3712 389.816 84.6212C389.808 85.4186 389.802 86.2188 389.794 87.0161C389.788 87.5746 389.783 88.1302 389.777 88.6859C389.763 90.1445 389.749 91.6059 389.736 93.0645C389.719 94.8204 389.699 96.5735 389.683 98.3293C389.655 100.988 389.63 103.647 389.605 106.309H377.945V61.8559H388.495C388.861 63.2312 389.228 64.6064 389.605 66.0234C389.891 65.64 390.177 65.2566 390.471 64.8593C393.864 60.5307 399.88 59.3555 404.874 61.8559Z" fill="#141A42"/>
<path d="M463.729 61.856H475.388V106.309H463.729V61.856Z" fill="#141A42"/>
<path d="M473.689 42.7914C475.063 43.8443 475.965 45.2113 476.498 46.8532C476.723 49.0342 476.806 51.1874 475.388 52.9655C473.936 54.5519 472.423 55.5771 470.266 55.8216C468.078 55.9049 466.482 55.4076 464.769 54.0435C463.106 52.4709 462.562 50.9151 462.479 48.6425C462.556 46.4587 463.184 45.1585 464.647 43.5721C467.142 41.2744 470.754 41.0911 473.689 42.7914Z" fill="#141A42"/>
</g>
<defs>
<clipPath id="clip0_36_5304">
<rect width="567" height="150" fill="white"/>
</clipPath>
</defs>
</svg>

