<svg width="200" height="200" viewBox="0 0 200 200" fill="none" xmlns="http://www.w3.org/2000/svg">
<g clip-path="url(#clip0_36_5318)">
<path d="M199.993 129.854C199.993 129.52 199.993 129.194 199.993 128.872C199.993 128.213 199.993 127.553 199.993 126.89C199.996 120.715 199.993 114.54 199.989 108.368C199.985 103.067 199.982 97.7663 199.989 92.4653C199.996 86.2716 200 80.0778 199.996 73.8804C199.996 73.2173 199.996 72.5542 199.996 71.8948C199.996 71.5577 199.996 71.2317 199.996 70.9057C199.996 68.6275 199.996 66.3456 199.996 64.0674C199.996 61.2632 200 58.4627 199.996 55.6622C199.996 54.2286 199.989 52.7913 199.993 51.3577C200 48.183 200.008 45.0121 199.911 41.8374C199.378 31.454 195.024 20.3001 187.266 13.1321C187.012 12.9073 186.76 12.6863 186.511 12.469C183.38 9.59809 180.224 7.0717 176.47 5.06021C176.23 4.93426 175.996 4.81202 175.767 4.68977C167.909 0.518632 159.591 -0.0407312 150.859 1.70777e-05C149.392 0.00742586 147.924 0.00742586 146.457 0.00372147C143.575 -0.00368731 140.689 -0.00368731 137.806 0.00372147C134.42 0.0111302 131.034 0.0148346 127.648 0.0148346C121.605 0.0148346 115.562 0.018539 109.52 0.0296522C103.651 0.0407654 97.7827 0.0481741 91.9142 0.0481741C85.4789 0.0481741 79.0472 0.0481741 72.6118 0.0518785C72.2599 0.0518785 71.919 0.0518785 71.5782 0.0518785C70.8928 0.0518785 70.2074 0.0518785 69.5257 0.0518785C67.1583 0.0518785 64.7909 0.0555829 62.4235 0.0555829C59.5151 0.0555829 56.6031 0.0555829 53.6948 0.0629917C52.2054 0.0666961 50.7198 0.0741049 49.2304 0.0704005C47.8559 0.0704005 46.4851 0.0704005 45.1106 0.0704005C44.603 0.0704005 44.0992 0.0741049 43.5916 0.0778093C32.188 0.0296522 21.3476 4.50826 13.2339 12.5394C3.03439 22.9746 -0.0258334 34.5805 0.00751043 48.8498C0.0112153 50.313 0.00751043 51.7726 0.00751043 53.2358C0.00010069 56.1067 0.00010069 58.9776 0.00751043 61.8485C0.00751043 64.2008 0.0112153 66.5531 0.00751043 68.9091C0.00751043 69.2536 0.00751043 69.5907 0.00751043 69.9241C0.00751043 70.6057 0.00751043 71.2873 0.00751043 71.9689C0.00751043 78.3516 0.00751043 84.7342 0.0112153 91.1132C0.0149202 96.5957 0.018625 102.082 0.0112153 107.564C0.00380556 113.969 0.00010069 120.37 0.00380556 126.775C0.00380556 127.461 0.00380556 128.142 0.00380556 128.828C0.00380556 129.176 0.00380556 129.513 0.00380556 129.85C0.00380556 132.21 0.00380556 134.566 0.00380556 136.925C0.00380556 139.826 0.00010069 142.723 0.00380556 145.623C0.00380556 147.109 0.0112153 148.59 0.00751043 150.076C-0.0295383 163.979 2.33046 176.214 12.4707 186.457C23.6335 197.411 36.7598 200.033 51.9498 200.004C53.328 200.004 54.7099 200.004 56.0881 200.004C58.7964 200.004 61.5046 200.004 64.2166 200.004C67.3991 200 70.5816 200 73.7641 200C79.4399 200 85.1158 200 90.7916 199.993C96.3082 199.989 101.825 199.985 107.341 199.985H109.405C115.725 199.985 122.046 199.985 128.363 199.981C130.589 199.981 132.812 199.981 135.039 199.981C137.773 199.981 140.511 199.981 143.245 199.978C144.646 199.978 146.042 199.974 147.443 199.974C148.736 199.974 150.029 199.974 151.318 199.974C151.797 199.974 152.271 199.974 152.741 199.974C165.697 199.993 177.352 196.31 186.785 187.212C197.233 176.24 200.026 164.034 199.993 149.257C199.989 147.846 199.993 146.431 199.993 145.019C200 142.245 200 139.467 199.996 136.692C199.996 134.417 199.993 132.143 199.996 129.872L199.993 129.854ZM108.705 154.71C108.449 154.858 108.197 155.007 107.934 155.158C99.7871 159.585 89.5727 160.326 80.6699 158.07C75.4276 156.47 70.5631 153.917 66.4692 150.265C66.1728 150.02 65.8727 149.772 65.5652 149.52C59.793 144.634 56.0363 138.196 53.8726 131.002C53.7541 130.617 53.6355 130.232 53.5132 129.835C50.6457 118.852 54.0393 108.302 59.3669 98.7479C59.9264 97.8218 60.5747 96.9958 61.2824 96.1771C61.8381 96.4771 62.3938 96.7772 62.9495 97.081C63.3237 97.281 63.6942 97.4847 64.0795 97.6922C64.9798 98.1886 65.869 98.6924 66.7544 99.211C70.0221 101.111 73.2935 102.656 76.8428 103.956C76.3019 105.227 75.5165 106.234 74.6829 107.32C72.1302 110.643 69.9147 114.088 69.8036 118.403C69.7887 118.774 69.7739 119.144 69.7591 119.526C69.622 126.06 71.7227 131.565 76.1463 136.418C80.5551 140.633 85.8864 142.3 91.8661 142.178C97.6234 141.886 102.103 139.552 106.108 135.444C106.342 135.224 106.579 135.003 106.819 134.781C109.09 132.499 110.12 129.494 111.294 126.553C112.587 127.101 113.384 127.835 114.351 128.846C115.362 129.88 116.37 130.876 117.478 131.81C119.875 133.858 122.046 136.166 124.261 138.407C122.213 145.453 114.803 151.247 108.701 154.706L108.705 154.71ZM146.909 135.029C146.909 135.551 146.906 136.073 146.902 136.596C146.902 137.125 146.902 137.659 146.902 138.189C146.902 139.589 146.898 140.989 146.894 142.389C146.891 143.816 146.887 145.245 146.887 146.672C146.883 149.476 146.876 152.276 146.869 155.081C146.402 154.736 145.935 154.392 145.468 154.047C145.209 153.854 144.949 153.662 144.683 153.465C143.456 152.506 142.393 151.406 141.311 150.287C139.729 148.676 138.14 147.12 136.417 145.66C135.406 144.771 134.476 143.804 133.531 142.845C132.571 141.9 131.56 141.034 130.541 140.156C129.615 139.337 128.759 138.459 127.892 137.577C127.203 136.899 126.484 136.266 125.751 135.633C124.554 134.603 123.443 133.517 122.335 132.391C121.646 131.713 120.927 131.08 120.193 130.446C119.227 129.613 118.308 128.761 117.415 127.853C116.529 126.953 115.618 126.109 114.658 125.282C113.617 124.386 112.636 123.46 111.672 122.482C110.716 121.511 109.742 120.593 108.708 119.704C107.408 118.585 106.208 117.396 105.004 116.173C104.285 115.466 103.544 114.803 102.781 114.147C101.48 113.028 100.28 111.839 99.0757 110.617C98.357 109.909 97.616 109.246 96.8528 108.59C95.5524 107.472 94.352 106.283 93.1479 105.06C92.4292 104.353 91.6882 103.69 90.925 103.034C89.6246 101.915 88.4242 100.726 87.2201 99.5036C86.5014 98.7961 85.7604 98.133 84.9972 97.4773C83.9636 96.5883 82.9892 95.6696 82.0333 94.699C80.8589 93.5099 79.6437 92.3986 78.3803 91.3095C77.1614 90.2538 75.9573 89.1795 74.7644 88.0941C74.242 87.6162 73.7122 87.1458 73.175 86.6864C68.3587 82.3301 66.1246 75.0806 65.6504 68.8128C65.4059 61.2076 68.3735 55.0472 73.1305 49.3795C82.6372 39.248 98.8016 37.9404 110.12 45.7863C111.042 46.5012 111.917 47.2458 112.784 48.0274C113.036 48.246 113.291 48.4646 113.551 48.6905C117.011 51.8763 119.415 56.2067 120.934 60.6224C121.023 60.8817 121.116 61.141 121.209 61.404C122.064 64.4156 121.675 67.4977 121.675 70.6242H105.374C105.129 68.9128 104.883 67.1841 104.633 65.4381C104.166 64.3008 103.803 63.4636 103.151 62.4745C102.944 62.1523 102.74 61.8337 102.525 61.504C100.124 59.0406 97.3048 57.5811 93.8408 57.4736C90.6546 57.5218 88.2056 58.785 85.7604 60.7631C84.1785 62.7783 82.7373 64.7231 82.6817 67.3606C82.6718 67.6249 82.6619 67.8928 82.652 68.1645C83.0077 71.0428 84.2896 72.7802 86.3643 74.725C86.5977 74.9509 86.8311 75.1769 87.0682 75.4066C88.4724 76.7587 89.9099 78.07 91.3955 79.3295C92.2995 80.1186 93.1294 80.978 93.9704 81.8337C94.6447 82.4968 95.3449 83.1117 96.0637 83.7303C97.1788 84.6898 98.2273 85.6937 99.2573 86.7383C100.51 88.0089 101.806 89.1906 103.162 90.3501C104.192 91.2651 105.148 92.2504 106.111 93.2321C106.83 93.9396 107.571 94.6027 108.334 95.2584C109.635 96.3771 110.835 97.5662 112.039 98.7887C112.758 99.4962 113.499 100.159 114.262 100.815C115.296 101.704 116.27 102.623 117.226 103.593C118.174 104.556 119.141 105.468 120.168 106.349C121.579 107.561 122.876 108.868 124.184 110.191C125.165 111.158 126.195 112.05 127.244 112.947C128.274 113.862 129.23 114.847 130.197 115.829C130.908 116.529 131.638 117.181 132.394 117.829C133.501 118.781 134.539 119.778 135.565 120.815C136.584 121.849 137.614 122.834 138.714 123.778C140.115 124.979 141.4 126.275 142.697 127.587C143.734 128.609 144.82 129.568 145.928 130.517C146.25 130.791 146.565 131.072 146.865 131.372C146.898 132.11 146.909 132.851 146.906 133.591C146.906 134.066 146.906 134.54 146.906 135.029H146.909Z" fill="white"/>
</g>
<defs>
<clipPath id="clip0_36_5318">
<rect width="200" height="200" fill="white"/>
</clipPath>
</defs>
</svg>

